<svg xmlns="http://www.w3.org/2000/svg" width="32" height="32" viewBox="0 0 32 32">
  <g id="Group_1" data-name="Group 1" transform="translate(0 0)">
    <path id="Path_1" data-name="Path 1" d="M14.84,14.84V4.56A4.56,4.56,0,0,0,10.27,0H4.56A4.57,4.57,0,0,0,0,4.56v5.71a4.56,4.56,0,0,0,4.56,4.56Zm2.3.02H27.41A4.57,4.57,0,0,0,32,10.29V4.59A4.57,4.57,0,0,0,27.41,0h-5.7a4.57,4.57,0,0,0-4.56,4.56v10.3Zm-2.3,2.3H4.56A4.56,4.56,0,0,0,0,21.73v5.71A4.57,4.57,0,0,0,4.56,32h5.71a4.56,4.56,0,0,0,4.56-4.56V17.16Z" fill="#fdcb6e" fill-rule="evenodd"/>
    <path id="Path_2" data-name="Path 2" d="M24.58,17.16a7.42,7.42,0,1,1-7.42,7.42,7.42,7.42,0,0,1,7.42-7.42Z" fill="#f39c12" fill-rule="evenodd"/>
  </g>
</svg>
