<svg xmlns="http://www.w3.org/2000/svg" width="468" height="469.047" viewBox="0 0 468 469.047">
  <g id="Group_1" data-name="Group 1" transform="translate(-0.523)">
    <path id="Path_1" data-name="Path 1" d="M296.188,40.495a222.99,222.99,0,0,0-28.326-6.069L272.52,2.767a255.222,255.222,0,0,1,32.406,6.944Z"/>
    <path id="Path_2" data-name="Path 2" d="M387.613,466.291l-99.35-50.031a259.65,259.65,0,0,1-53.74,5.6c-117.419,0-234-86.651-234-210.93S117.1,0,234.523,0V32c-111.383,0-202,80.268-202,178.93s90.617,178.93,202,178.93a227.122,227.122,0,0,0,52.149-6.034,16,16,0,0,1,10.875,1.281l81.262,40.921V343.035a16,16,0,0,1,4.862-11.487c34.082-33.046,52.852-75.883,52.852-120.618,0-69.4-45.966-133.144-117.1-162.4l12.17-29.6C409.444,50.952,468.523,124.72,468.523,210.93c0,51.283-20.44,100.287-57.714,138.73V452C411.773,466.5,400.023,473.25,387.613,466.291Z"/>
    <path id="Path_3" data-name="Path 3" d="M154.644,348.634a123.783,123.783,0,0,1-49.4-40.189L96.316,296.07A29.877,29.877,0,0,1,99.431,257.3l34.937-34.929c12.928-12.926,34.936-11.03,45.536,3.659l12.1,16.765,74.882-74.863-16.759-12.089c-14.694-10.6-16.591-32.617-3.657-45.546l34.935-34.927a29.884,29.884,0,0,1,38.764-3.114L332.5,81.144a122.8,122.8,0,0,1,40.317,49.642,83.907,83.907,0,0,1-17.171,92.484L247.315,331.57C231.816,347.064,198.19,368.333,154.644,348.634ZM167.9,319.506a51.357,51.357,0,0,0,56.795-10.568l108.327-108.3a51.364,51.364,0,0,0,10.556-56.853,90.767,90.767,0,0,0-29.8-36.692l-10.945-7.9-32.07,32.063,30.1,21.714a16.15,16.15,0,0,1,1.951,24.291L201.344,278.706a16.149,16.149,0,0,1-24.286-1.951l-21.725-30.1-32.072,32.064,7.937,10.995a90.764,90.764,0,0,0,36.59,29.741l.107.049c19.16,8.494-.036-.016,0,0,19.16,8.494-.036-.016,0,0C187.055,328,167.859,319.49,167.9,319.506Z" fill="#c57600"/>
  </g>
</svg>
