<svg xmlns="http://www.w3.org/2000/svg" width="161.548" height="185.284" viewBox="0 0 161.548 185.284">
  <path id="Path_1" data-name="Path 1" d="M164.663,72.722C161.95,45.357,144.617,21.378,119,9.553A82.99,82.99,0,0,0,39.612,14.99,78.46,78.46,0,0,0,3.884,72.722a76.509,76.509,0,0,0,23.376,62.889L77.622,184.5a9.718,9.718,0,0,0,13.493,0l50.172-48.893A76.509,76.509,0,0,0,164.663,72.722Zm-36.679,49.906L84.273,164.983,40.563,122.628A58.686,58.686,0,0,1,22.793,74.564,60.216,60.216,0,0,1,50.255,30.091a63.124,63.124,0,0,1,68.037,0A60.224,60.224,0,0,1,145.754,74.38a58.683,58.683,0,0,1-17.769,48.248ZM84.273,39.3c-23.616,0-42.761,18.551-42.761,41.435s19.145,41.435,42.761,41.435,42.761-18.551,42.761-41.435C126.982,57.87,107.868,39.349,84.273,39.3Zm0,64.454c-13.12,0-23.756-10.306-23.756-23.019S71.153,57.714,84.273,57.714s23.756,10.306,23.756,23.019-10.636,23.019-23.756,23.019Z" transform="translate(-3.5 -1.943)" fill="#c57600"/>
</svg>
