<svg id="Layer_x0020_1" xmlns="http://www.w3.org/2000/svg" width="6.827" height="6.827" viewBox="0 0 6.827 6.827">
  <rect id="Rectangle_1" data-name="Rectangle 1" width="6.827" height="6.827" rx="1.456" fill="#0a93e2"/>
  <path id="Path_1" data-name="Path 1" d="M5.49,2.378a1.64,1.64,0,0,1-.471.129.825.825,0,0,0,.361-.454,1.649,1.649,0,0,1-.521.2A.822.822,0,0,0,3.46,3a2.33,2.33,0,0,1-1.691-.858.822.822,0,0,0,.254,1.1.816.816,0,0,1-.372-.1v.01a.821.821,0,0,0,.658.8.82.82,0,0,1-.371.014.822.822,0,0,0,.767.57,1.646,1.646,0,0,1-1.019.351,1.629,1.629,0,0,1-.2-.011A2.334,2.334,0,0,0,5.083,2.908c0-.036,0-.071,0-.106a1.666,1.666,0,0,0,.409-.425Z" fill="#fff" fill-rule="evenodd"/>
</svg>
