<svg xmlns="http://www.w3.org/2000/svg" width="141.798" height="99.59" viewBox="0 0 141.798 99.59">
  <g id="Group_1" data-name="Group 1" transform="translate(-5.371 -13.433)">
    <path id="Path_26" data-name="Path 26" d="M64.937,44.211c-13-6.948-25.451-13.336-38.176-20V64.1c13.391-7.279,27.505-13.946,38.231-19.892h-.055Z" transform="translate(34.888 17.567)" fill="#fff"/>
    <path id="Path_27" data-name="Path 27" d="M64.937,44.211c-13-6.948-38.176-20-38.176-20L60.325,46.765s-6.114,3.391,4.612-2.555Z" transform="translate(34.888 17.567)" fill="#e8e0e0"/>
    <path id="Path_28" data-name="Path 28" d="M64.1,112.9c-27-.5-36.229-.944-41.9-2.113a18.417,18.417,0,0,1-9.613-5C10.7,103.9,9.2,101.009,8.03,97.005c-1-3.336-1.389-6.111-1.944-12.891-.85-15.3-1.052-27.81,0-41.788.866-7.716,1.287-16.88,7.053-22.226a18.917,18.917,0,0,1,9.447-4.778c5.556-1.055,29.228-1.889,53.735-1.889,24.451,0,48.176.834,53.737,1.889a18.486,18.486,0,0,1,11.057,6.556c5.262,8.277,5.354,18.568,5.888,26.619.221,3.836.221,25.616,0,29.452-.831,12.723-1.5,17.224-3.389,21.891a16.138,16.138,0,0,1-3.891,6.225,18.639,18.639,0,0,1-9.892,5.056c-23.37,1.757-43.214,2.139-65.736,1.778ZM99.883,61.778c-13-6.948-25.451-13.391-38.176-20.06v39.9c13.393-7.28,27.508-13.95,38.231-19.9Z" fill="#cd201f"/>
  </g>
</svg>
