<svg xmlns="http://www.w3.org/2000/svg" width="99.518" height="99.588" viewBox="0 0 99.518 99.588">
  <g id="Group_1" data-name="Group 1" transform="translate(-147.553 -39.282)">
    <path id="Path_2" data-name="Path 2" d="M147.553,113.545h0a47.032,47.032,0,0,0,.451,6.631,22.986,22.986,0,0,0,2.038,6.7,21.434,21.434,0,0,0,5.984,7.237,19.436,19.436,0,0,0,5.987,3.245,32.445,32.445,0,0,0,9.844,1.446c2.088.013,4.175.065,6.264.057,15.171-.064,30.342.11,45.513-.094a35.8,35.8,0,0,0,5.969-.634,20.218,20.218,0,0,0,10-4.864,20.722,20.722,0,0,0,6.6-11.016,40.145,40.145,0,0,0,.86-8.715v-.584c0-.226-.086-49.713-.094-50.367a30.485,30.485,0,0,0-.492-5.348,21.781,21.781,0,0,0-2.02-6.2,21.535,21.535,0,0,0-4.141-5.529,20.542,20.542,0,0,0-9.041-5.159,36.639,36.639,0,0,0-9.561-1.02.1.1,0,0,1-.018-.049H172.9v.049a52.208,52.208,0,0,0-5.482.245,26.107,26.107,0,0,0-5.856,1.318,21.221,21.221,0,0,0-12.958,14.173,36.527,36.527,0,0,0-1.02,9.484" fill="#fffc00"/>
    <path id="Path_3" data-name="Path 3" d="M253.135,188.177c-.207,0-.4-.008-.554-.015-.119.01-.242.015-.365.015-4.342,0-7.245-2.053-9.807-3.865-1.836-1.3-3.568-2.522-5.6-2.859a18.065,18.065,0,0,0-2.945-.249,20.162,20.162,0,0,0-4.085.462,9.074,9.074,0,0,1-1.549.222,1.067,1.067,0,0,1-1.164-.834c-.172-.583-.295-1.148-.414-1.693-.3-1.36-.513-2.19-1.022-2.269-5.446-.84-8.663-2.078-9.3-3.577a1.391,1.391,0,0,1-.113-.473.874.874,0,0,1,.731-.912,19.013,19.013,0,0,0,11.43-6.8,25.628,25.628,0,0,0,3.9-6.06q.009-.021.02-.042a3.907,3.907,0,0,0,.373-3.274c-.7-1.655-3.026-2.392-4.563-2.88-.382-.121-.744-.236-1.032-.35-1.363-.538-3.6-1.676-3.306-3.246.218-1.145,1.732-1.942,2.956-1.942a2.1,2.1,0,0,1,.894.179,8.946,8.946,0,0,0,3.7.976,3.093,3.093,0,0,0,2.129-.651q-.06-1.09-.131-2.179c-.312-4.969-.7-11.152.88-14.7,4.734-10.614,14.773-11.439,17.736-11.439l1.467-.014c2.971,0,13.031.826,17.768,11.447,1.582,3.548,1.192,9.737.878,14.71l-.015.238c-.043.675-.083,1.315-.116,1.934a3,3,0,0,0,1.931.646,9.256,9.256,0,0,0,3.483-.97,2.752,2.752,0,0,1,1.141-.226,3.451,3.451,0,0,1,1.3.249l.021.008a2.415,2.415,0,0,1,1.828,1.982c.014.761-.552,1.9-3.333,3-.285.113-.648.228-1.032.35-1.539.488-3.861,1.225-4.563,2.879a3.9,3.9,0,0,0,.373,3.273c.007.014.013.028.02.043.194.454,4.878,11.134,15.328,12.856a.875.875,0,0,1,.731.912,1.4,1.4,0,0,1-.116.477c-.636,1.491-3.854,2.727-9.3,3.568-.511.079-.727.9-1.021,2.258-.122.559-.246,1.106-.415,1.682a1.017,1.017,0,0,1-1.077.806h-.085a8.717,8.717,0,0,1-1.55-.2,20.393,20.393,0,0,0-4.085-.433,18.112,18.112,0,0,0-2.946.249c-2.027.337-3.758,1.56-5.591,2.856-2.567,1.815-5.471,3.868-9.813,3.868" transform="translate(-55.375 -64.865)" fill="#fff"/>
    <path id="Path_4" data-name="Path 4" d="M249.745,116.946a18.255,18.255,0,0,1,16.969,10.928c1.495,3.351,1.112,9.422.8,14.3-.048.774-.1,1.524-.134,2.24l-.016.308.206.229a3.661,3.661,0,0,0,2.588.971h.057a10.109,10.109,0,0,0,3.827-1.053,1.87,1.87,0,0,1,.77-.143,2.579,2.579,0,0,1,.971.184l.044.017c.733.257,1.251.741,1.259,1.179,0,.248-.181,1.14-2.779,2.166-.254.1-.588.207-.976.329-1.691.537-4.245,1.347-5.1,3.372a4.73,4.73,0,0,0,.394,4c.307.715,5.132,11.585,15.99,13.374a.481.481,0,0,1-.044.174c-.184.433-1.354,1.931-8.633,3.054-1.139.175-1.418,1.451-1.742,2.936-.117.531-.236,1.068-.4,1.622-.05.167-.059.177-.239.177h-.086a8.027,8.027,0,0,1-1.381-.178,21.363,21.363,0,0,0-4.254-.449,18.818,18.818,0,0,0-3.089.262c-2.228.37-4.039,1.652-5.958,3.008-2.576,1.821-5.239,3.7-9.3,3.7-.177,0-.351-.006-.524-.015h-.092c-.1.009-.2.013-.3.013-4.062,0-6.727-1.883-9.3-3.7-1.919-1.356-3.731-2.637-5.959-3.008a18.871,18.871,0,0,0-3.088-.262,20.965,20.965,0,0,0-4.253.478,8.689,8.689,0,0,1-1.382.206c-.264,0-.269-.015-.324-.206-.163-.554-.283-1.1-.4-1.634-.324-1.486-.6-2.77-1.742-2.944-7.279-1.124-8.449-2.624-8.633-3.057a.532.532,0,0,1-.045-.178c10.858-1.788,15.683-12.658,15.99-13.376a4.718,4.718,0,0,0,.393-4c-.86-2.024-3.413-2.836-5.1-3.371-.388-.123-.723-.23-.977-.33-2.194-.867-2.868-1.74-2.768-2.269.116-.61,1.174-1.231,2.1-1.231a1.265,1.265,0,0,1,.524.1,9.788,9.788,0,0,0,4.068,1.059,3.754,3.754,0,0,0,2.817-.978l.2-.229-.016-.306c-.038-.716-.085-1.466-.135-2.238-.306-4.878-.689-10.944.8-14.3A18.235,18.235,0,0,1,248.28,116.96l1.3-.013h.165m0-1.749h-.186l-1.284.013a21.631,21.631,0,0,0-8.537,1.807,19.019,19.019,0,0,0-5.446,3.611,20.381,20.381,0,0,0-4.55,6.54c-1.669,3.742-1.273,10.044-.954,15.109v.008c.034.542.07,1.109.1,1.661a2.923,2.923,0,0,1-1.227.231,8.1,8.1,0,0,1-3.326-.894,2.975,2.975,0,0,0-1.266-.261,4.489,4.489,0,0,0-2.236.627,3.1,3.1,0,0,0-1.579,2.026,2.792,2.792,0,0,0,1.063,2.628,9.113,9.113,0,0,0,2.781,1.6c.317.125.693.244,1.092.37,1.383.439,3.475,1.1,4.021,2.388a3.106,3.106,0,0,1-.353,2.544c-.013.028-.027.056-.039.085a24.654,24.654,0,0,1-3.758,5.835,21.137,21.137,0,0,1-4.537,4.016,16.685,16.685,0,0,1-6.371,2.488,1.749,1.749,0,0,0-1.463,1.824,2.307,2.307,0,0,0,.18.762h0a4.679,4.679,0,0,0,2.528,2.168,28.889,28.889,0,0,0,7.3,1.907,8.979,8.979,0,0,1,.446,1.61c.122.563.249,1.141.43,1.756a1.915,1.915,0,0,0,2,1.462,9.626,9.626,0,0,0,1.717-.238,19.353,19.353,0,0,1,3.918-.446,17.163,17.163,0,0,1,2.8.238c1.83.3,3.407,1.419,5.232,2.709,2.671,1.888,5.7,4.026,10.315,4.026a3.643,3.643,0,0,0,.377-.013c.153.007.342.013.542.013,4.621,0,7.644-2.138,10.313-4.025h0c1.825-1.289,3.4-2.4,5.23-2.706a17.174,17.174,0,0,1,2.8-.238,19.554,19.554,0,0,1,3.918.416,9.285,9.285,0,0,0,1.717.211h.086a1.89,1.89,0,0,0,1.918-1.436c.177-.6.3-1.167.429-1.739a9.141,9.141,0,0,1,.444-1.6,28.933,28.933,0,0,0,7.3-1.907,4.687,4.687,0,0,0,2.526-2.161,2.239,2.239,0,0,0,.185-.77,1.749,1.749,0,0,0-1.463-1.824c-9.983-1.645-14.48-11.9-14.666-12.338q-.018-.043-.04-.085a3.1,3.1,0,0,1-.351-2.544c.545-1.283,2.636-1.947,4.02-2.386.4-.126.778-.246,1.093-.37a8.392,8.392,0,0,0,2.978-1.784,2.833,2.833,0,0,0,.907-2.043,3.213,3.213,0,0,0-2.4-2.785,4.288,4.288,0,0,0-1.625-.311,3.637,3.637,0,0,0-1.511.308,8.509,8.509,0,0,1-3.112.888,2.814,2.814,0,0,1-1.03-.227c.027-.468.057-.948.089-1.449l.013-.214c.32-5.068.717-11.376-.952-15.12a20.408,20.408,0,0,0-4.568-6.559A19.069,19.069,0,0,0,258.258,117a21.739,21.739,0,0,0-8.534-1.794" transform="translate(-51.726 -61.221)" fill="#020202"/>
    <path id="Path_5" data-name="Path 5" d="M147.553,39.443h99.512v99.512H147.553Z" transform="translate(0 -0.127)" fill="none"/>
  </g>
</svg>
